HIERARCHY
ROOT Hips
{
 OFFSET 0.000000 0.000000 0.000000
 CHANNELS 6 Xposition Yposition Zposition Yrotation Xrotation Zrotation
 JOINT Chest
 {
  OFFSET 0.000000 10.080317 -0.001081
  CHANNELS 3 Yrotation Xrotation Zrotation
  JOINT Chest2
  {
   OFFSET 0.000000 11.096852 0.001963
   CHANNELS 3 Yrotation Xrotation Zrotation
   JOINT Chest3
   {
    OFFSET 0.000000 10.026525 0.000000
    CHANNELS 3 Yrotation Xrotation Zrotation
    JOINT Chest4
    {
     OFFSET 0.000000 10.026525 0.000000
     CHANNELS 3 Yrotation Xrotation Zrotation
     JOINT Neck
     {
      OFFSET 0.000000 14.108171 0.000000
      CHANNELS 3 Yrotation Xrotation Zrotation
      JOINT Head
      {
       OFFSET 0.000000 9.333493 0.004668
       CHANNELS 3 Yrotation Xrotation Zrotation
       End Site
       {
        OFFSET 0.000000 17.851786 0.002438
       }
      }
     }
     JOINT RightCollar
     {
      OFFSET -3.071622 7.873185 0.000000
      CHANNELS 3 Yrotation Xrotation Zrotation
      JOINT RightShoulder
      {
       OFFSET -14.378659 0.000000 0.000000
       CHANNELS 3 Yrotation Xrotation Zrotation
       JOINT RightElbow
       {
        OFFSET -30.778728 0.000000 0.000000
        CHANNELS 3 Yrotation Xrotation Zrotation
        JOINT RightWrist
        {
         OFFSET -25.164217 0.000000 0.000000
         CHANNELS 3 Yrotation Xrotation Zrotation
         End Site
         {
          OFFSET -18.796788 0.000000 0.000000
         }
        }
       }
      }
     }
     JOINT LeftCollar
     {
      OFFSET 3.071622 7.873185 0.000000
      CHANNELS 3 Yrotation Xrotation Zrotation
      JOINT LeftShoulder
      {
       OFFSET 14.378659 0.000000 0.000000
       CHANNELS 3 Yrotation Xrotation Zrotation
       JOINT LeftElbow
       {
        OFFSET 30.778728 0.000000 0.000000
        CHANNELS 3 Yrotation Xrotation Zrotation
        JOINT LeftWrist
        {
         OFFSET 25.164217 0.000000 0.000000
         CHANNELS 3 Yrotation Xrotation Zrotation
         End Site
         {
          OFFSET 18.796788 0.000000 0.000000
         }
        }
       }
      }
     }
    }
   }
  }
 }
 JOINT RightHip
 {
  OFFSET -8.194923 0.005295 0.000540
  CHANNELS 3 Yrotation Xrotation Zrotation
  JOINT RightKnee
  {
   OFFSET 0.000000 -42.473320 -0.000511
   CHANNELS 3 Yrotation Xrotation Zrotation
   JOINT RightAnkle
   {
    OFFSET 0.000000 -41.474259 -0.000865
    CHANNELS 3 Yrotation Xrotation Zrotation
    JOINT RightToe
    {
     OFFSET 0.000000 -7.354994 16.712725
     CHANNELS 3 Yrotation Xrotation Zrotation
     End Site
     {
      OFFSET 0.000000 -1.553903 6.764158
     }
    }
   }
  }
 }
 JOINT LeftHip
 {
  OFFSET 8.194923 0.005295 0.000540
  CHANNELS 3 Yrotation Xrotation Zrotation
  JOINT LeftKnee
  {
   OFFSET 0.000000 -42.473320 -0.000511
   CHANNELS 3 Yrotation Xrotation Zrotation
   JOINT LeftAnkle
   {
    OFFSET 0.000000 -41.474259 -0.000865
    CHANNELS 3 Yrotation Xrotation Zrotation
    JOINT LeftToe
    {
     OFFSET 0.000000 -7.354994 16.712725
     CHANNELS 3 Yrotation Xrotation Zrotation
     End Site
     {
      OFFSET 0.000000 -1.553903 6.764158
     }
    }
   }
  }
 }
}
MOTION
Frames: 8
Frame Time: 0.016667
0.000000 91.111157 0.000000 0.000000 -5.826342 0.000000 0.000000 11.116423 0.000000 0.000000 -5.290081 0.000000 0.000000 0.000000 0.000000 0.000000 0.000000 0.000000 0.000000 12.665069 0.000000 0.000000 0.575450 0.000000 0.000000 0.000000 0.000000 0.000000 0.000000 0.000000 2.337306 0.000000 0.000000 -2.337306 0.000000 0.000000 0.000000 0.000000 0.000000 0.000000 0.000000 0.000000 -2.337306 0.000000 0.000000 2.337306 0.000000 0.000000 0.000000 8.578828 0.000000 0.000000 1.905768 0.000000 0.000000 -4.658254 0.000000 0.000000 0.000000 0.000000 0.000000 8.578828 0.000000 0.000000 1.905768 0.000000 0.000000 -4.658254 0.000000 0.000000 0.000000 0.000000
-53.260953 92.684657 72.101693 -2.983738 -7.258926 -0.709959 -0.442899 3.498470 -0.835280 -0.198440 1.552284 -0.364639 -0.198440 1.552284 -0.364639 -0.147895 1.164332 -0.272958 0.185729 16.915843 0.159634 0.288055 -4.770872 0.230580 -3.443134 -0.491678 10.684906 -3.616845 -3.788945 72.208010 16.535231 19.952587 9.124931 -5.898585 2.916230 -6.236584 -2.809314 -0.226875 -4.394142 -2.861520 -7.634113 -72.299968 -16.238648 23.864096 -18.584530 4.036750 5.605127 15.125672 -2.187745 8.010503 -3.223570 1.703077 2.974676 -0.202979 -5.075181 -4.053329 3.153837 -0.085441 0.037819 -0.039883 2.694447 10.794053 3.800103 -1.813902 5.912303 -0.949859 2.958532 -8.246122 -1.401897 0.086707 0.076429 0.045892
-53.254878 92.681410 72.139580 -2.933667 -7.207783 -0.693799 -0.450197 3.483953 -0.831286 -0.201150 1.545318 -0.363992 -0.201150 1.545318 -0.363992 -0.149933 1.159109 -0.272469 0.187967 16.936680 0.152098 0.294846 -4.732167 0.215864 -3.445300 -0.469836 10.706376 -3.607008 -3.789099 72.210125 16.536135 19.955471 9.107410 -5.903066 2.896720 -6.257272 -2.808410 -0.190543 -4.404772 -2.854056 -7.636990 -72.306318 -16.262097 23.883825 -18.604182 4.030252 5.603811 15.124718 -2.150783 7.985813 -3.232877 1.668559 2.996364 -0.207952 -5.136092 -4.105253 3.161439 -0.084056 0.042292 -0.035444 2.667079 10.759279 3.776109 -1.836265 5.916737 -0.944887 2.948166 -8.265825 -1.401266 0.085198 0.069969 0.043582
-53.250006 92.680327 72.175680 -2.887529 -7.157639 -0.675390 -0.449348 3.458391 -0.827397 -0.201018 1.535517 -0.361458 -0.201018 1.535517 -0.361458 -0.149846 1.151757 -0.270572 0.180953 16.958092 0.148859 0.282998 -4.692398 0.212345 -3.452499 -0.421649 10.705525 -3.625637 -3.807973 72.223052 16.540451 19.936164 9.098763 -5.916428 2.877498 -6.265131 -2.829016 -0.139975 -4.422370 -2.847634 -7.642245 -72.321016 -16.271838 23.898146 -18.603869 4.037010 5.607386 15.116017 -2.121938 7.965239 -3.249754 1.643869 3.005369 -0.203707 -5.179115 -4.142102 3.163885 -0.081225 0.038910 -0.033150 2.625680 10.721749 3.762490 -1.843793 5.928960 -0.972373 2.938522 -8.283454 -1.381084 0.080803 0.059529 0.038843
-53.244947 92.679831 72.221753 -2.840199 -7.116011 -0.662059 -0.455246 3.449531 -0.820744 -0.203464 1.531711 -0.359458 -0.203464 1.531711 -0.359458 -0.151688 1.148904 -0.269067 0.176229 16.970921 0.146522 0.275072 -4.668569 0.209684 -3.434971 -0.386661 10.713028 -3.648854 -3.816633 72.227398 16.546178 19.899345 9.087734 -5.916874 2.875299 -6.274066 -2.818883 -0.104303 -4.432293 -2.857040 -7.651447 -72.338113 -16.264981 23.893764 -18.617150 4.031678 5.590401 15.117186 -2.111467 7.957831 -3.261631 1.619891 3.018290 -0.211770 -5.206509 -4.190240 3.173388 -0.081363 0.037778 -0.029522 2.597434 10.694524 3.742202 -1.873545 5.949138 -0.972896 2.952329 -8.302805 -1.377341 0.081138 0.043335 0.035653
-53.242314 92.676442 72.268478 -2.793113 -7.069987 -0.650999 -0.457870 3.438525 -0.808893 -0.204915 1.527213 -0.355305 -0.204915 1.527213 -0.355305 -0.152789 1.145530 -0.265951 0.169988 16.983288 0.140315 0.265690 -4.645596 0.200386 -3.439011 -0.363866 10.707391 -3.661718 -3.822407 72.247828 16.549701 19.886508 9.076255 -5.926837 2.858513 -6.260050 -2.822835 -0.076923 -4.451661 -2.890055 -7.654013 -72.338868 -16.258498 23.863116 -18.623459 4.037323 5.588689 15.129260 -2.077100 7.938610 -3.264936 1.575470 3.050902 -0.220070 -5.254766 -4.253071 3.179198 -0.081870 0.040912 -0.023675 2.593471 10.678489 3.740862 -1.919513 5.937440 -0.990743 2.953365 -8.317817 -1.373882 0.082420 0.037348 0.039647
-53.240814 92.674959 72.324422 -2.743457 -7.026297 -0.641403 -0.470368 3.438165 -0.800110 -0.209653 1.526880 -0.354316 -0.209653 1.526880 -0.354316 -0.156345 1.145282 -0.265197 0.162470 16.991390 0.145698 0.249895 -4.630552 0.212985 -3.443163 -0.369898 10.701192 -3.643862 -3.790414 72.269910 16.567428 19.868171 9.058242 -5.936636 2.844949 -6.252001 -2.824188 -0.056048 -4.452914 -2.896410 -7.660123 -72.381191 -16.257791 23.853674 -18.608424 4.038111 5.591399 15.162266 -2.049180 7.932568 -3.260220 1.545205 3.075235 -0.239078 -5.301678 -4.316873 3.185537 -0.077967 0.043089 -0.016724 2.565168 10.667229 3.740643 -1.965060 5.933692 -1.018498 2.975942 -8.336534 -1.358961 0.078390 0.025906 0.035926
-53.243101 92.673152 72.380808 -2.701198 -6.985045 -0.631431 -0.473381 3.426439 -0.799967 -0.210589 1.522923 -0.353834 -0.210589 1.522923 -0.353834 -0.157051 1.142315 -0.264835 0.154807 17.004301 0.160208 0.230650 -4.606579 0.242533 -3.440433 -0.349972 10.705267 -3.634681 -3.764889 72.275992 16.587868 19.851261 9.058550 -5.934095 2.824653 -6.258846 -2.824287 -0.023821 -4.451221 -2.905923 -7.644740 -72.406643 -16.269805 23.845176 -18.609257 4.038820 5.581524 15.211856 -2.041463 7.930685 -3.260380 1.534899 3.088350 -0.255998 -5.341436 -4.361990 3.194824 -0.075621 0.034650 -0.014658 2.510137 10.655915 3.737351 -1.972239 5.941342 -1.044170 2.991142 -8.365799 -1.353997 0.075237 0.018336 0.037239
